<svg xmlns="http://www.w3.org/2000/svg" xmlns:xlink="http://www.w3.org/1999/xlink"><symbol id="icon-email" viewBox="0 0 26 19">
<path d="M22.2407 0H3.09787C1.38906 0 0 1.34493 0 2.99946V15.6672C0 17.3217 1.38906 18.6667 3.09787 18.6667H22.2355C23.9443 18.6667 25.3333 17.3217 25.3333 15.6672V3.00453C25.3386 1.35001 23.9495 0 22.2407 0ZM23.9233 15.6672C23.9233 16.5655 23.1685 17.2964 22.2407 17.2964H3.09787C2.17008 17.2964 1.41527 16.5655 1.41527 15.6672V3.00453C1.41527 2.10622 2.17008 1.37539 3.09787 1.37539H22.2355C23.1632 1.37539 23.9181 2.10622 23.9181 3.00453V15.6672H23.9233Z" fill="#00B2FF"/>
<path d="M15.9768 9.17598L22.1725 3.79624C22.4608 3.54248 22.487 3.11108 22.2249 2.82687C21.9629 2.54773 21.5173 2.52236 21.2238 2.77612L12.6797 10.2012L11.0129 8.75981C11.0076 8.75473 11.0024 8.74966 11.0024 8.74458C10.9657 8.70905 10.929 8.6786 10.8871 8.64815L4.10425 2.77104C3.81071 2.51728 3.36517 2.54266 3.10308 2.82687C2.84099 3.11108 2.8672 3.54248 3.16074 3.79624L9.42986 9.22165L3.18695 14.8805C2.90389 15.1394 2.88817 15.5708 3.1555 15.8499C3.29702 15.992 3.48573 16.0681 3.67443 16.0681C3.84741 16.0681 4.02038 16.0072 4.15667 15.8854L10.4939 10.1453L12.2132 11.6324C12.3495 11.7491 12.5172 11.8049 12.685 11.8049C12.8527 11.8049 13.0257 11.744 13.1567 11.6273L14.9232 10.0946L21.2238 15.8905C21.3601 16.0174 21.5383 16.0783 21.7112 16.0783C21.9 16.0783 22.0834 16.0072 22.2249 15.8651C22.4923 15.5911 22.4818 15.1546 22.1987 14.8958L15.9768 9.17598Z" fill="#00B2FF"/>
</symbol><symbol id="icon-logo" viewBox="0 0 52 52">
<path fill-rule="evenodd" clip-rule="evenodd" d="M1.73333 8.66652V12.2926C0.727135 12.6514 0 13.6047 0 14.7331C0 16.1665 1.16653 17.333 2.6 17.333C4.03347 17.333 5.2 16.1665 5.2 14.7331C5.2 13.6047 4.47287 12.6514 3.46667 12.2926V9.02532L9.02547 3.46661H13.1595C13.5183 4.47279 14.4716 5.19991 15.6 5.19991C17.0335 5.19991 18.2 4.0334 18.2 2.59996C18.2 1.16651 17.0335 0 15.6 0C14.4716 0 13.5183 0.727121 13.1595 1.7333H8.66667C8.437 1.7333 8.216 1.8243 8.05393 1.98723L1.98727 8.0538C1.82433 8.21586 1.73333 8.43599 1.73333 8.66652ZM16.4667 2.59996C16.4667 3.07835 16.0775 3.46661 15.6 3.46661C15.1225 3.46661 14.7333 3.07835 14.7333 2.59996C14.7333 2.12156 15.1225 1.7333 15.6 1.7333C16.0775 1.7333 16.4667 2.12156 16.4667 2.59996ZM3.46667 14.7331C3.46667 15.2115 3.07753 15.5997 2.6 15.5997C2.12247 15.5997 1.73333 15.2115 1.73333 14.7331C1.73333 14.2547 2.12247 13.8664 2.6 13.8664C3.07753 13.8664 3.46667 14.2547 3.46667 14.7331ZM9.53338 22.533C9.93378 22.533 10.3082 22.6309 10.647 22.7938L12.1334 21.3075V12.9998C12.1334 12.7693 12.2244 12.5491 12.3873 12.3871L21.0609 3.7136C20.898 3.37474 20.8 3.00035 20.8 2.59996C20.8 1.16651 21.9666 0 23.4 0C24.8335 0 26 1.16651 26 2.59996C26 4.0334 24.8335 5.19991 23.4 5.19991C22.9996 5.19991 22.6252 5.10198 22.2864 4.93905L13.8667 13.3586V21.6663C13.8667 21.8968 13.7757 22.117 13.6128 22.279L11.8725 24.0193C12.0354 24.3581 12.1334 24.7325 12.1334 25.1329C12.1334 26.5664 10.9668 27.7329 9.53338 27.7329C8.09991 27.7329 6.93338 26.5664 6.93338 25.1329C6.93338 23.6995 8.09991 22.533 9.53338 22.533ZM23.4 3.46661C23.8776 3.46661 24.2667 3.07835 24.2667 2.59996C24.2667 2.12156 23.8776 1.7333 23.4 1.7333C22.9225 1.7333 22.5334 2.12156 22.5334 2.59996C22.5334 3.07835 22.9225 3.46661 23.4 3.46661ZM9.53338 25.9996C10.0109 25.9996 10.4 25.6113 10.4 25.1329C10.4 24.6545 10.0109 24.2663 9.53338 24.2663C9.05585 24.2663 8.66672 24.6545 8.66672 25.1329C8.66672 25.6113 9.05585 25.9996 9.53338 25.9996ZM25.1333 13.8665V19.2259C24.1271 19.5847 23.4 20.538 23.4 21.6664C23.4 23.0998 24.5665 24.2663 26 24.2663C27.4335 24.2663 28.6 23.0998 28.6 21.6664C28.6 20.538 27.8729 19.5847 26.8667 19.2259V14.2253L29.8255 11.2665H32.2261C32.5849 12.2727 33.5382 12.9998 34.6667 12.9998C36.1001 12.9998 37.2667 11.8333 37.2667 10.3999C37.2667 8.96644 36.1001 7.79993 34.6667 7.79993C33.5382 7.79993 32.5849 8.52705 32.2261 9.53323H29.4667C29.237 9.53323 29.016 9.62423 28.8539 9.78716L25.3872 13.2538C25.2243 13.4158 25.1333 13.636 25.1333 13.8665ZM35.5333 10.3999C35.5333 10.8783 35.1442 11.2665 34.6667 11.2665C34.1891 11.2665 33.8 10.8783 33.8 10.3999C33.8 9.92149 34.1891 9.53323 34.6667 9.53323C35.1442 9.53323 35.5333 9.92149 35.5333 10.3999ZM26.8667 21.6664C26.8667 22.1448 26.4775 22.533 26 22.533C25.5225 22.533 25.1333 22.1448 25.1333 21.6664C25.1333 21.188 25.5225 20.7997 26 20.7997C26.4775 20.7997 26.8667 21.188 26.8667 21.6664ZM34.5074 15.5998C34.1486 14.5936 33.1952 13.8665 32.0668 13.8665C30.6334 13.8665 29.466 15.033 29.466 16.4664C29.466 17.8999 30.6325 19.0664 32.066 19.0664C33.1944 19.0664 34.1477 18.3392 34.5065 17.3331H43.493C43.8518 18.3392 44.8051 19.0664 45.9335 19.0664C47.367 19.0664 48.5335 17.8999 48.5335 16.4664C48.5335 15.033 47.367 13.8665 45.9335 13.8665C44.8051 13.8665 43.8518 14.5936 43.493 15.5998H34.5074ZM46.8002 16.4664C46.8002 16.9448 46.411 17.3331 45.9335 17.3331C45.456 17.3331 45.0668 16.9448 45.0668 16.4664C45.0668 15.988 45.456 15.5998 45.9335 15.5998C46.411 15.5998 46.8002 15.988 46.8002 16.4664ZM32.9335 16.4664C32.9335 16.9448 32.5444 17.3331 32.0668 17.3331C31.5893 17.3331 31.2002 16.9448 31.2002 16.4664C31.2002 15.988 31.5893 15.5998 32.0668 15.5998C32.5444 15.5998 32.9335 15.988 32.9335 16.4664ZM13.8658 46.9595V34.5066C12.8605 34.1478 12.1333 33.1945 12.1333 32.0661C12.1333 30.6327 13.2999 29.4661 14.7333 29.4661C15.8617 29.4661 16.8151 30.1933 17.1739 31.1995H26.1595C26.5183 30.1933 27.4716 29.4661 28.6 29.4661C29.7284 29.4661 30.6817 30.1933 31.0405 31.1995H36.0412L39.2609 27.9798C39.0979 27.641 39 27.2666 39 26.8662C39 25.4327 40.1665 24.2662 41.6 24.2662C43.0335 24.2662 44.2 25.4327 44.2 26.8662C44.2 28.2996 43.0335 29.4661 41.6 29.4661C41.1996 29.4661 40.8252 29.3682 40.4863 29.2053L37.0127 32.6788C36.8507 32.8418 36.6297 32.9328 36.4 32.9328H31.0405C30.6817 33.9389 29.7284 34.6661 28.6 34.6661C27.4716 34.6661 26.5183 33.9389 26.1595 32.9328H17.173C16.9113 33.6668 16.3332 34.2449 15.5991 34.5066V46.9595C16.6053 47.3183 17.3325 48.2716 17.3325 49.4C17.3325 50.8335 16.1659 52 14.7325 52C13.299 52 12.1325 50.8335 12.1325 49.4C12.1325 48.2716 12.8596 47.3183 13.8658 46.9595ZM41.6 27.7328C42.0775 27.7328 42.4667 27.3446 42.4667 26.8662C42.4667 26.3878 42.0775 25.9995 41.6 25.9995C41.1225 25.9995 40.7333 26.3878 40.7333 26.8662C40.7333 27.3446 41.1225 27.7328 41.6 27.7328ZM28.6 32.9328C29.0775 32.9328 29.4667 32.5445 29.4667 32.0661C29.4667 31.5877 29.0775 31.1995 28.6 31.1995C28.1225 31.1995 27.7333 31.5877 27.7333 32.0661C27.7333 32.5445 28.1225 32.9328 28.6 32.9328ZM14.7333 50.2658C15.2109 50.2658 15.6 49.8775 15.6 49.3991C15.6 48.9208 15.2109 48.5325 14.7333 48.5325C14.2558 48.5325 13.8667 48.9208 13.8667 49.3991C13.8667 49.8775 14.2558 50.2658 14.7333 50.2658ZM14.7333 32.9328C15.2109 32.9328 15.6 32.5445 15.6 32.0661C15.6 31.5877 15.2109 31.1995 14.7333 31.1995C14.2558 31.1995 13.8667 31.5877 13.8667 32.0661C13.8667 32.5445 14.2558 32.9328 14.7333 32.9328ZM18.2 14.7331V17.4925C17.1938 17.8513 16.4667 18.8046 16.4667 19.933C16.4667 21.3664 17.6332 22.533 19.0667 22.533C20.5002 22.533 21.6667 21.3664 21.6667 19.933C21.6667 18.8046 20.9396 17.8513 19.9334 17.4925V15.0919L30.0864 4.93905C30.4252 5.10198 30.7996 5.19991 31.2 5.19991C32.3284 5.19991 33.2818 4.47279 33.6406 3.46661H36.4V5.19991C36.4 5.43044 36.491 5.65057 36.654 5.81264L40.1276 9.28618C39.9646 9.62504 39.8667 9.99943 39.8667 10.3998C39.8667 11.8333 41.0332 12.9998 42.4667 12.9998C43.9002 12.9998 45.0667 11.8333 45.0667 10.3998C45.0667 8.96638 43.9002 7.79987 42.4667 7.79987C42.0663 7.79987 41.6919 7.8978 41.353 8.06073L38.1334 4.84112V2.59996C38.1334 2.1207 37.7451 1.7333 37.2667 1.7333H33.6406C33.2818 0.727121 32.3284 0 31.2 0C29.7666 0 28.6 1.16651 28.6 2.59996C28.6 3.00035 28.698 3.37474 28.8609 3.7136L18.454 14.1204C18.291 14.2824 18.2 14.5026 18.2 14.7331ZM43.3334 10.3998C43.3334 10.8782 42.9442 11.2665 42.4667 11.2665C41.9892 11.2665 41.6 10.8782 41.6 10.3998C41.6 9.92143 41.9892 9.53317 42.4667 9.53317C42.9442 9.53317 43.3334 9.92143 43.3334 10.3998ZM32.0667 2.59996C32.0667 3.07835 31.6776 3.46661 31.2 3.46661C30.7225 3.46661 30.3334 3.07835 30.3334 2.59996C30.3334 2.12156 30.7225 1.7333 31.2 1.7333C31.6776 1.7333 32.0667 2.12156 32.0667 2.59996ZM19.9334 19.933C19.9334 20.4114 19.5442 20.7997 19.0667 20.7997C18.5892 20.7997 18.2 20.4114 18.2 19.933C18.2 19.4546 18.5892 19.0663 19.0667 19.0663C19.5442 19.0663 19.9334 19.4546 19.9334 19.933ZM20.8 24.2663C21.9284 24.2663 22.8818 24.9934 23.2406 25.9996H33.4412L38.3873 21.0536C38.5494 20.8906 38.7704 20.7997 39 20.7997H48.1746L50.2667 18.7076V11.6253L43.5804 4.93905C43.2415 5.10198 42.8671 5.19991 42.4667 5.19991C41.0332 5.19991 39.8667 4.0334 39.8667 2.59996C39.8667 1.16651 41.0332 0 42.4667 0C43.9002 0 45.0667 1.16651 45.0667 2.59996C45.0667 3.00035 44.9688 3.37474 44.8058 3.7136L51.7461 10.6538C51.909 10.8158 52 11.0359 52 11.2665V19.0663C52 19.2969 51.909 19.517 51.7461 19.6791L49.1461 22.279C48.9841 22.442 48.7631 22.533 48.5334 22.533H39.3588L34.4128 27.4789C34.2507 27.6419 34.0297 27.7329 33.8 27.7329H23.2406C22.8818 28.7391 21.9284 29.4662 20.8 29.4662C19.3666 29.4662 18.2 28.2997 18.2 26.8662C18.2 25.4328 19.3666 24.2663 20.8 24.2663ZM42.4667 1.7333C41.9892 1.7333 41.6 2.12156 41.6 2.59996C41.6 3.07835 41.9892 3.46661 42.4667 3.46661C42.9442 3.46661 43.3334 3.07835 43.3334 2.59996C43.3334 2.12156 42.9442 1.7333 42.4667 1.7333ZM20.8 27.7329C21.2776 27.7329 21.6667 27.3446 21.6667 26.8662C21.6667 26.3878 21.2776 25.9996 20.8 25.9996C20.3225 25.9996 19.9334 26.3878 19.9334 26.8662C19.9334 27.3446 20.3225 27.7329 20.8 27.7329ZM3.71368 21.0606C3.37482 20.8976 3.00042 20.7997 2.60002 20.7997C1.16655 20.7997 1.71661e-05 21.9662 1.71661e-05 23.3997C1.71661e-05 24.528 0.72715 25.4814 1.73335 25.8402V26.8663C1.73335 27.0968 1.82435 27.3169 1.98728 27.479L8.66668 34.1583V34.8256C7.66048 35.1844 6.93335 36.1377 6.93335 37.2661C6.93335 38.3945 7.66048 39.3478 8.66668 39.7066V41.7597C7.66048 42.1185 6.93335 43.0718 6.93335 44.2002C6.93335 45.6336 8.09988 46.8001 9.53335 46.8001C10.9668 46.8001 12.1334 45.6336 12.1334 44.2002C12.1334 43.0718 11.4062 42.1185 10.4 41.7597V39.7066C11.4062 39.3478 12.1334 38.3945 12.1334 37.2661C12.1334 36.1377 11.4062 35.1844 10.4 34.8256V33.7995C10.4 33.569 10.309 33.3488 10.1461 33.1868L3.46668 26.5075V25.8402C4.47288 25.4814 5.20002 24.528 5.20002 23.3997C5.20002 22.9993 5.10208 22.6249 4.93915 22.286L8.41275 18.8125C8.57568 18.6504 8.66668 18.4303 8.66668 18.1998V12.8404C9.67288 12.4816 10.4 11.5283 10.4 10.3999C10.4 8.96644 9.23348 7.79993 7.80002 7.79993C6.36655 7.79993 5.20002 8.96644 5.20002 10.3999C5.20002 11.5283 5.92715 12.4816 6.93335 12.8404V17.841L3.71368 21.0606ZM8.66668 10.3999C8.66668 10.8783 8.27755 11.2665 7.80002 11.2665C7.32248 11.2665 6.93335 10.8783 6.93335 10.3999C6.93335 9.92149 7.32248 9.53323 7.80002 9.53323C8.27755 9.53323 8.66668 9.92149 8.66668 10.3999ZM10.4 44.1993C10.4 44.6777 10.0109 45.066 9.53335 45.066C9.05582 45.066 8.66668 44.6777 8.66668 44.1993C8.66668 43.7209 9.05582 43.3327 9.53335 43.3327C10.0109 43.3327 10.4 43.7209 10.4 44.1993ZM10.4 37.2661C10.4 37.7445 10.0109 38.1328 9.53335 38.1328C9.05582 38.1328 8.66668 37.7445 8.66668 37.2661C8.66668 36.7877 9.05582 36.3995 9.53335 36.3995C10.0109 36.3995 10.4 36.7877 10.4 37.2661ZM3.46668 23.3997C3.46668 23.8781 3.07755 24.2663 2.60002 24.2663C2.12248 24.2663 1.73335 23.8781 1.73335 23.3997C1.73335 22.9213 2.12248 22.533 2.60002 22.533C3.07755 22.533 3.46668 22.9213 3.46668 23.3997Z" fill="#00B2FF"/>
</symbol><symbol id="icon-menu" viewBox="0 0 37 13">
<path fill-rule="evenodd" clip-rule="evenodd" d="M37 0H0V1H37V0ZM37 12H0V13H37V12Z" fill="white"/>
</symbol><symbol id="icon-phone" viewBox="0 0 25 24">
<path d="M19.6447 14.8671C19.1526 14.3555 18.5591 14.082 17.9301 14.082C17.3062 14.082 16.7076 14.3505 16.1952 14.8621L14.5922 16.4576C14.4603 16.3867 14.3285 16.3209 14.2016 16.255C14.019 16.1639 13.8465 16.0777 13.6994 15.9866C12.1979 15.0343 10.8333 13.7933 9.52458 12.1875C8.89048 11.3872 8.46437 10.7135 8.15494 10.0297C8.5709 9.6498 8.95643 9.2547 9.33181 8.87479C9.47385 8.73296 9.61588 8.58607 9.75792 8.44424C10.8232 7.38051 10.8232 6.00273 9.75792 4.93901L8.37306 3.55616C8.21581 3.39913 8.05348 3.23704 7.9013 3.07495C7.59693 2.7609 7.27735 2.43671 6.94762 2.13279C6.45557 1.64652 5.86713 1.38818 5.24826 1.38818C4.62938 1.38818 4.0308 1.64652 3.52353 2.13279C3.51845 2.13786 3.51845 2.13786 3.51338 2.14292L1.78865 3.88034C1.13934 4.52871 0.76903 5.31891 0.687866 6.23574C0.56612 7.71483 1.00238 9.09261 1.33718 9.99424C2.15896 12.2078 3.38656 14.2593 5.21782 16.4576C7.43968 19.1068 10.113 21.1988 13.1668 22.6729C14.3335 23.225 15.8909 23.8784 17.6308 23.9898C17.7373 23.9949 17.8489 24 17.9504 24C19.1222 24 20.1063 23.5796 20.8774 22.7438C20.8824 22.7336 20.8926 22.7286 20.8977 22.7184C21.1614 22.3993 21.4658 22.1106 21.7854 21.8016C22.0035 21.5939 22.2267 21.3761 22.4448 21.1482C22.947 20.6264 23.2108 20.0186 23.2108 19.3956C23.2108 18.7675 22.942 18.1647 22.4296 17.6581L19.6447 14.8671ZM21.4607 20.201C21.4557 20.201 21.4557 20.206 21.4607 20.201C21.2629 20.4137 21.06 20.6062 20.8419 20.8189C20.5121 21.133 20.1773 21.4622 19.8628 21.832C19.3505 22.3791 18.7468 22.6374 17.9555 22.6374C17.8794 22.6374 17.7982 22.6374 17.7221 22.6323C16.2155 22.5361 14.8154 21.9485 13.7654 21.447C10.8942 20.0591 8.37306 18.0887 6.27802 15.5915C4.54822 13.5096 3.39164 11.5848 2.62565 9.5181C2.15389 8.25682 1.98141 7.27414 2.05751 6.34718C2.10823 5.75453 2.33651 5.26319 2.75754 4.84276L4.48735 3.11547C4.73591 2.88247 4.99969 2.75583 5.2584 2.75583C5.57799 2.75583 5.83669 2.94832 5.99902 3.11041C6.0041 3.11547 6.00917 3.12054 6.01424 3.1256C6.32368 3.41433 6.6179 3.71319 6.92733 4.03231C7.08459 4.1944 7.24692 4.35649 7.40924 4.52365L8.7941 5.90649C9.33181 6.44342 9.33181 6.93983 8.7941 7.47675C8.64699 7.62365 8.50495 7.77054 8.35785 7.91237C7.93174 8.348 7.52592 8.75323 7.08459 9.14832C7.07444 9.15846 7.0643 9.16352 7.05922 9.17365C6.62297 9.60927 6.70413 10.0348 6.79544 10.3235C6.80051 10.3387 6.80559 10.3539 6.81066 10.3691C7.17083 11.2403 7.6781 12.0609 8.44915 13.0385L8.45423 13.0436C9.8543 14.7658 11.3305 16.1081 12.9588 17.1364C13.1668 17.2681 13.3799 17.3745 13.5828 17.4758C13.7654 17.567 13.9379 17.6531 14.085 17.7443C14.1053 17.7544 14.1255 17.7696 14.1458 17.7797C14.3183 17.8658 14.4806 17.9063 14.648 17.9063C15.0691 17.9063 15.3329 17.6429 15.4191 17.5568L17.154 15.8245C17.3264 15.6523 17.6004 15.4446 17.92 15.4446C18.2345 15.4446 18.4932 15.6421 18.6504 15.8143C18.6555 15.8194 18.6555 15.8194 18.6606 15.8245L21.4557 18.6155C21.9781 19.1322 21.9781 19.664 21.4607 20.201Z" fill="#00B2FF"/>
<path d="M13.6384 5.70896C14.9675 5.93184 16.1748 6.55994 17.1386 7.52236C18.1024 8.48478 18.7264 9.69034 18.9546 11.0175C19.0104 11.3518 19.2996 11.5848 19.6293 11.5848C19.6699 11.5848 19.7054 11.5797 19.746 11.5747C20.1214 11.5139 20.3699 11.1593 20.3091 10.7845C20.0351 9.17874 19.2742 7.71484 18.1126 6.55488C16.9509 5.39491 15.4849 4.6351 13.8768 4.36157C13.5014 4.30079 13.1514 4.54899 13.0855 4.91876C13.0195 5.28853 13.263 5.64817 13.6384 5.70896Z" fill="#00B2FF"/>
<path d="M24.6564 10.5869C24.2049 7.94279 22.957 5.53674 21.0395 3.62203C19.122 1.70732 16.7124 0.461243 14.0645 0.0104253C13.6942 -0.0554245 13.3442 0.197844 13.2782 0.567616C13.2173 0.942453 13.4659 1.29196 13.8413 1.35781C16.2052 1.75798 18.3611 2.87742 20.0757 4.58445C21.7903 6.29654 22.9063 8.44933 23.307 10.8098C23.3628 11.1441 23.652 11.3771 23.9817 11.3771C24.0223 11.3771 24.0578 11.372 24.0984 11.367C24.4687 11.3113 24.7223 10.9567 24.6564 10.5869Z" fill="#00B2FF"/>
</symbol></svg>